<svg width="1778.001" height="101" viewBox="0 0 1778.001 101" xmlns="http://www.w3.org/2000/svg"><g id="svgGroup" stroke-linecap="round" fill-rule="evenodd" font-size="9pt" stroke="#00a6ff" stroke-width="0mm" fill="#00a6ff" style="stroke:#00a6ff;stroke-width:0mm;fill:#00a6ff"><path d="M 1569.9 83 L 1563.3 83 L 1554 28 L 1558.8 28 L 1565.6 68.9 Q 1566 71.1 1566.4 74.25 Q 1566.8 77.4 1567 79.5 A 56.336 56.336 0 0 1 1567.187 77.823 Q 1567.384 76.262 1567.7 74.3 A 374.135 374.135 0 0 1 1568.061 72.102 Q 1568.35 70.375 1568.6 69 L 1576.6 28 L 1581.6 28 L 1589.6 69 A 50.502 50.502 0 0 1 1589.968 70.777 Q 1590.156 71.768 1590.336 72.896 A 99.229 99.229 0 0 1 1590.55 74.3 Q 1591 77.4 1591.2 79.5 Q 1591.395 77.451 1591.733 74.402 A 600.646 600.646 0 0 1 1591.75 74.25 Q 1592.1 71.1 1592.5 68.9 L 1599.3 28 L 1604 28 L 1594.6 83 L 1588 83 L 1581.1 43.9 A 173.174 173.174 0 0 0 1580.658 41.085 Q 1580.413 39.599 1580.119 37.956 A 284.966 284.966 0 0 0 1580.1 37.85 Q 1579.53 34.667 1579.14 32.522 A 1154.75 1154.75 0 0 0 1579.1 32.3 Q 1578.72 34.39 1578.204 37.519 A 586.018 586.018 0 0 0 1578.15 37.85 Q 1577.6 41.2 1577.1 43.9 L 1569.9 83 Z M 5 83 L 0 83 L 0 10 L 5 10 L 5 25 L 5 36 L 7.3 36 L 4.3 42 A 17.037 17.037 0 0 1 4.971 37.099 A 13.254 13.254 0 0 1 8.7 31.1 A 14.955 14.955 0 0 1 16.222 27.371 A 21.402 21.402 0 0 1 20.3 27 A 20.47 20.47 0 0 1 26.14 27.793 A 15.871 15.871 0 0 1 33.3 32.2 Q 38.2 37.4 38.2 46.3 L 38.2 83 L 33.2 83 L 33.2 47 A 23.529 23.529 0 0 0 32.777 42.395 Q 32.228 39.646 30.967 37.514 A 12.758 12.758 0 0 0 29.45 35.45 A 12.365 12.365 0 0 0 21.699 31.458 A 17.569 17.569 0 0 0 19.3 31.3 Q 12.7 31.3 8.85 35.5 A 14.03 14.03 0 0 0 5.637 41.574 Q 5 44.031 5 47 L 5 83 Z M 262.9 84 L 256.2 84 Q 251.2 84 247.35 82.15 A 16.133 16.133 0 0 1 242.084 78.187 A 15.634 15.634 0 0 1 241.15 77 Q 238.8 73.7 238.3 69.5 L 243.3 69.5 Q 244.1 73.8 247.55 76.65 A 12.292 12.292 0 0 0 253.561 79.299 A 16.707 16.707 0 0 0 256.2 79.5 L 262.9 79.5 A 17.155 17.155 0 0 0 266.483 79.148 Q 268.764 78.66 270.502 77.499 A 10.023 10.023 0 0 0 271.6 76.65 Q 274.8 73.8 274.8 69 A 12.034 12.034 0 0 0 274.202 65.139 A 10.38 10.38 0 0 0 272.25 61.7 Q 269.7 58.7 265.3 58.1 L 254.6 56.6 A 25.437 25.437 0 0 1 249.877 55.488 Q 246.168 54.205 243.7 51.8 A 12.742 12.742 0 0 1 239.898 43.773 A 17.505 17.505 0 0 1 239.8 41.9 Q 239.8 35.1 244.55 31.05 A 16.283 16.283 0 0 1 251.301 27.668 Q 253.738 27.063 256.603 27.006 A 30.127 30.127 0 0 1 257.2 27 L 261.4 27 A 24.868 24.868 0 0 1 266.739 27.542 Q 270.47 28.362 273.279 30.42 A 15.722 15.722 0 0 1 273.65 30.7 Q 278.4 34.4 279.1 40.5 L 274.1 40.5 A 9.577 9.577 0 0 0 270.564 34.415 A 12.641 12.641 0 0 0 270.1 34.05 Q 266.786 31.565 261.668 31.502 A 21.733 21.733 0 0 0 261.4 31.5 L 257.2 31.5 A 18.17 18.17 0 0 0 253.466 31.862 Q 251.116 32.355 249.307 33.522 A 10.649 10.649 0 0 0 248.25 34.3 Q 244.9 37.1 244.9 41.8 A 10.087 10.087 0 0 0 245.341 44.854 A 8.079 8.079 0 0 0 247.6 48.4 A 11.025 11.025 0 0 0 250.54 50.317 Q 252.611 51.263 255.4 51.7 L 265.9 53.2 A 19.236 19.236 0 0 1 270.843 54.555 A 14.991 14.991 0 0 1 275.95 58.15 A 13.964 13.964 0 0 1 279.626 66.625 A 18.533 18.533 0 0 1 279.7 68.3 A 17.98 17.98 0 0 1 279.006 73.42 A 13.936 13.936 0 0 1 275.15 79.7 A 15.286 15.286 0 0 1 267.822 83.492 A 22.559 22.559 0 0 1 262.9 84 Z M 802.9 84 L 796.2 84 Q 791.2 84 787.35 82.15 A 16.133 16.133 0 0 1 782.084 78.187 A 15.634 15.634 0 0 1 781.15 77 Q 778.8 73.7 778.3 69.5 L 783.3 69.5 Q 784.1 73.8 787.55 76.65 A 12.292 12.292 0 0 0 793.561 79.299 A 16.707 16.707 0 0 0 796.2 79.5 L 802.9 79.5 A 17.155 17.155 0 0 0 806.483 79.148 Q 808.764 78.66 810.502 77.499 A 10.023 10.023 0 0 0 811.6 76.65 Q 814.8 73.8 814.8 69 A 12.034 12.034 0 0 0 814.202 65.139 A 10.38 10.38 0 0 0 812.25 61.7 Q 809.7 58.7 805.3 58.1 L 794.6 56.6 A 25.437 25.437 0 0 1 789.877 55.488 Q 786.168 54.205 783.7 51.8 A 12.742 12.742 0 0 1 779.898 43.773 A 17.505 17.505 0 0 1 779.8 41.9 Q 779.8 35.1 784.55 31.05 A 16.283 16.283 0 0 1 791.301 27.668 Q 793.738 27.063 796.603 27.006 A 30.127 30.127 0 0 1 797.2 27 L 801.4 27 A 24.868 24.868 0 0 1 806.739 27.542 Q 810.47 28.362 813.279 30.42 A 15.722 15.722 0 0 1 813.65 30.7 Q 818.4 34.4 819.1 40.5 L 814.1 40.5 A 9.577 9.577 0 0 0 810.564 34.415 A 12.641 12.641 0 0 0 810.1 34.05 Q 806.786 31.565 801.668 31.502 A 21.733 21.733 0 0 0 801.4 31.5 L 797.2 31.5 A 18.17 18.17 0 0 0 793.466 31.862 Q 791.116 32.355 789.307 33.522 A 10.649 10.649 0 0 0 788.25 34.3 Q 784.9 37.1 784.9 41.8 A 10.087 10.087 0 0 0 785.341 44.854 A 8.079 8.079 0 0 0 787.6 48.4 A 11.025 11.025 0 0 0 790.54 50.317 Q 792.611 51.263 795.4 51.7 L 805.9 53.2 A 19.236 19.236 0 0 1 810.843 54.555 A 14.991 14.991 0 0 1 815.95 58.15 A 13.964 13.964 0 0 1 819.626 66.625 A 18.533 18.533 0 0 1 819.7 68.3 A 17.98 17.98 0 0 1 819.006 73.42 A 13.936 13.936 0 0 1 815.15 79.7 A 15.286 15.286 0 0 1 807.822 83.492 A 22.559 22.559 0 0 1 802.9 84 Z M 1400.9 101 L 1386.4 101 L 1386.4 96.5 L 1400.9 96.5 A 18.242 18.242 0 0 0 1404.392 96.187 Q 1406.398 95.795 1407.954 94.914 A 9.297 9.297 0 0 0 1409.9 93.45 A 9.722 9.722 0 0 0 1412.352 89.298 Q 1412.828 87.755 1412.954 85.891 A 20.575 20.575 0 0 0 1413 84.5 L 1413 80 L 1413 68.5 L 1411.2 68.5 L 1413.7 64 A 17.037 17.037 0 0 1 1413.029 68.901 A 13.254 13.254 0 0 1 1409.3 74.9 A 14.955 14.955 0 0 1 1401.778 78.629 A 21.402 21.402 0 0 1 1397.7 79 A 19.986 19.986 0 0 1 1391.566 78.101 A 16.142 16.142 0 0 1 1384.5 73.55 A 18.519 18.519 0 0 1 1380.051 64.685 A 26.88 26.88 0 0 1 1379.5 59.1 L 1379.5 47 Q 1379.5 38 1384.5 32.5 A 16.533 16.533 0 0 1 1395.7 27.086 A 22.776 22.776 0 0 1 1397.7 27 A 20.608 20.608 0 0 1 1402.706 27.577 A 14.733 14.733 0 0 1 1409.3 31.1 A 13.614 13.614 0 0 1 1413.569 39.736 A 19.04 19.04 0 0 1 1413.7 42 L 1411.7 37.5 L 1413 37.5 L 1413 28 L 1418 28 L 1418 84.5 A 24.613 24.613 0 0 1 1417.575 89.229 Q 1417.042 91.948 1415.84 94.045 A 12.322 12.322 0 0 1 1413.65 96.85 Q 1410.014 100.319 1403.547 100.888 A 30.211 30.211 0 0 1 1400.9 101 Z M 1760.9 101 L 1746.4 101 L 1746.4 96.5 L 1760.9 96.5 A 18.242 18.242 0 0 0 1764.392 96.187 Q 1766.398 95.795 1767.954 94.914 A 9.297 9.297 0 0 0 1769.9 93.45 A 9.722 9.722 0 0 0 1772.352 89.298 Q 1772.828 87.755 1772.954 85.891 A 20.575 20.575 0 0 0 1773 84.5 L 1773 80 L 1773 68.5 L 1771.2 68.5 L 1773.7 64 A 17.037 17.037 0 0 1 1773.029 68.901 A 13.254 13.254 0 0 1 1769.3 74.9 A 14.955 14.955 0 0 1 1761.778 78.629 A 21.402 21.402 0 0 1 1757.7 79 A 19.986 19.986 0 0 1 1751.566 78.101 A 16.142 16.142 0 0 1 1744.5 73.55 A 18.519 18.519 0 0 1 1740.051 64.685 A 26.88 26.88 0 0 1 1739.5 59.1 L 1739.5 47 Q 1739.5 38 1744.5 32.5 A 16.533 16.533 0 0 1 1755.7 27.086 A 22.776 22.776 0 0 1 1757.7 27 A 20.608 20.608 0 0 1 1762.706 27.577 A 14.733 14.733 0 0 1 1769.3 31.1 A 13.614 13.614 0 0 1 1773.569 39.736 A 19.04 19.04 0 0 1 1773.7 42 L 1771.7 37.5 L 1773 37.5 L 1773 28 L 1778 28 L 1778 84.5 A 24.613 24.613 0 0 1 1777.575 89.229 Q 1777.042 91.948 1775.84 94.045 A 12.322 12.322 0 0 1 1773.65 96.85 Q 1770.014 100.319 1763.547 100.888 A 30.211 30.211 0 0 1 1760.9 101 Z M 1685 83 L 1680 83 L 1680 28 L 1685 28 L 1685 37.5 L 1687.3 37.5 L 1684.3 42.6 A 18.816 18.816 0 0 1 1684.912 37.676 A 13.875 13.875 0 0 1 1688.65 31.25 A 14.591 14.591 0 0 1 1696.213 27.377 A 21.117 21.117 0 0 1 1700.3 27 A 20.47 20.47 0 0 1 1706.14 27.793 A 15.871 15.871 0 0 1 1713.3 32.2 Q 1718.2 37.4 1718.2 46.3 L 1718.2 83 L 1713.2 83 L 1713.2 47 A 23.529 23.529 0 0 0 1712.777 42.395 Q 1712.228 39.646 1710.967 37.514 A 12.758 12.758 0 0 0 1709.45 35.45 A 12.365 12.365 0 0 0 1701.699 31.458 A 17.569 17.569 0 0 0 1699.3 31.3 Q 1692.7 31.3 1688.85 35.5 A 14.03 14.03 0 0 0 1685.637 41.574 Q 1685 44.031 1685 47 L 1685 83 Z M 1274.3 52 L 1293.2 52 L 1293.2 45.5 Q 1293.2 40.167 1290.849 36.76 A 11.22 11.22 0 0 0 1289.6 35.25 A 11.713 11.713 0 0 0 1284.183 32.179 Q 1282.03 31.6 1279.4 31.6 A 20.092 20.092 0 0 0 1275.033 32.05 A 14.129 14.129 0 0 0 1269.5 34.55 A 11.561 11.561 0 0 0 1264.923 42.344 A 14.656 14.656 0 0 0 1264.9 42.5 L 1259.9 42.5 Q 1260.9 35.5 1266.25 31.25 A 19.431 19.431 0 0 1 1275.878 27.233 A 25.776 25.776 0 0 1 1279.4 27 A 22.989 22.989 0 0 1 1285.417 27.747 A 16.931 16.931 0 0 1 1293.05 32.1 Q 1298.2 37.2 1298.2 45.5 L 1298.2 83 L 1293.2 83 L 1293.2 71.8 L 1292.3 71.8 L 1293.9 69.8 A 13.36 13.36 0 0 1 1292.884 75.087 Q 1291.676 77.922 1289.034 80.033 A 15.724 15.724 0 0 1 1288.95 80.1 A 17.363 17.363 0 0 1 1282.385 83.254 Q 1279.857 83.895 1276.885 83.985 A 32.465 32.465 0 0 1 1275.9 84 A 26.128 26.128 0 0 1 1270.23 83.419 Q 1266.15 82.512 1263.139 80.192 A 16.359 16.359 0 0 1 1262.3 79.5 Q 1257.2 75 1257.2 67.6 A 17.368 17.368 0 0 1 1257.917 62.488 A 13.677 13.677 0 0 1 1261.9 56.25 A 16.046 16.046 0 0 1 1269.517 52.469 A 23.201 23.201 0 0 1 1274.3 52 Z M 1634.3 52 L 1653.2 52 L 1653.2 45.5 Q 1653.2 40.167 1650.849 36.76 A 11.22 11.22 0 0 0 1649.6 35.25 A 11.713 11.713 0 0 0 1644.183 32.179 Q 1642.03 31.6 1639.4 31.6 A 20.092 20.092 0 0 0 1635.033 32.05 A 14.129 14.129 0 0 0 1629.5 34.55 A 11.561 11.561 0 0 0 1624.923 42.344 A 14.656 14.656 0 0 0 1624.9 42.5 L 1619.9 42.5 Q 1620.9 35.5 1626.25 31.25 A 19.431 19.431 0 0 1 1635.878 27.233 A 25.776 25.776 0 0 1 1639.4 27 A 22.989 22.989 0 0 1 1645.417 27.747 A 16.931 16.931 0 0 1 1653.05 32.1 Q 1658.2 37.2 1658.2 45.5 L 1658.2 83 L 1653.2 83 L 1653.2 71.8 L 1652.3 71.8 L 1653.9 69.8 A 13.36 13.36 0 0 1 1652.884 75.087 Q 1651.676 77.922 1649.034 80.033 A 15.724 15.724 0 0 1 1648.95 80.1 A 17.363 17.363 0 0 1 1642.385 83.254 Q 1639.857 83.895 1636.885 83.985 A 32.465 32.465 0 0 1 1635.9 84 A 26.128 26.128 0 0 1 1630.23 83.419 Q 1626.15 82.512 1623.139 80.192 A 16.359 16.359 0 0 1 1622.3 79.5 Q 1617.2 75 1617.2 67.6 A 17.368 17.368 0 0 1 1617.917 62.488 A 13.677 13.677 0 0 1 1621.9 56.25 A 16.046 16.046 0 0 1 1629.517 52.469 A 23.201 23.201 0 0 1 1634.3 52 Z M 479.5 64 L 479.5 47 A 26.043 26.043 0 0 1 479.993 41.811 A 19.33 19.33 0 0 1 481.9 36.45 Q 484.3 32 488.75 29.5 Q 493.2 27 499.2 27 A 26.055 26.055 0 0 1 505.256 27.665 A 17.806 17.806 0 0 1 513.65 32.15 Q 519 37.3 519 46 L 514 46 A 18.845 18.845 0 0 0 513.533 41.679 A 12.453 12.453 0 0 0 510.05 35.4 A 13.112 13.112 0 0 0 503.96 32.134 Q 501.788 31.6 499.2 31.6 A 18.468 18.468 0 0 0 494.681 32.123 A 12.922 12.922 0 0 0 488.45 35.65 A 13.281 13.281 0 0 0 485.152 41.605 Q 484.592 43.693 484.513 46.177 A 25.976 25.976 0 0 0 484.5 47 L 484.5 64 A 21.204 21.204 0 0 0 484.967 68.584 Q 485.858 72.609 488.45 75.3 A 13.084 13.084 0 0 0 495.6 79.076 A 19.057 19.057 0 0 0 499.2 79.4 A 19.936 19.936 0 0 0 503.687 78.924 Q 507.058 78.146 509.454 76.095 A 12.513 12.513 0 0 0 510.05 75.55 Q 514 71.7 514 65 L 519 65 A 22.884 22.884 0 0 1 518.248 71.026 A 16.755 16.755 0 0 1 513.65 78.85 A 17.904 17.904 0 0 1 504.891 83.419 A 26.391 26.391 0 0 1 499.2 84 A 24.8 24.8 0 0 1 493.916 83.462 A 19.049 19.049 0 0 1 488.75 81.55 Q 484.3 79.1 481.9 74.6 A 20.029 20.029 0 0 1 479.852 68.436 A 26.851 26.851 0 0 1 479.5 64 Z M 98.5 83 L 85 83 A 19.88 19.88 0 0 1 81.267 82.672 Q 79.12 82.261 77.447 81.335 A 10.091 10.091 0 0 1 75.35 79.8 Q 72.276 76.864 72.023 71.486 A 20.953 20.953 0 0 1 72 70.5 L 72 32.5 L 56 32.5 L 56 28 L 72 28 L 72 12.5 L 77 12.5 L 77 28 L 99.5 28 L 99.5 32.5 L 77 32.5 L 77 70.5 Q 77 76.848 82.037 78.159 A 11.786 11.786 0 0 0 85 78.5 L 98.5 78.5 L 98.5 83 Z M 158.5 83 L 145 83 A 19.88 19.88 0 0 1 141.267 82.672 Q 139.12 82.261 137.447 81.335 A 10.091 10.091 0 0 1 135.35 79.8 Q 132.276 76.864 132.023 71.486 A 20.953 20.953 0 0 1 132 70.5 L 132 32.5 L 116 32.5 L 116 28 L 132 28 L 132 12.5 L 137 12.5 L 137 28 L 159.5 28 L 159.5 32.5 L 137 32.5 L 137 70.5 Q 137 76.848 142.037 78.159 A 11.786 11.786 0 0 0 145 78.5 L 158.5 78.5 L 158.5 83 Z M 1238.5 83 L 1225 83 A 19.88 19.88 0 0 1 1221.267 82.672 Q 1219.12 82.261 1217.447 81.335 A 10.091 10.091 0 0 1 1215.35 79.8 Q 1212.276 76.864 1212.023 71.486 A 20.953 20.953 0 0 1 1212 70.5 L 1212 32.5 L 1196 32.5 L 1196 28 L 1212 28 L 1212 12.5 L 1217 12.5 L 1217 28 L 1239.5 28 L 1239.5 32.5 L 1217 32.5 L 1217 70.5 Q 1217 76.848 1222.037 78.159 A 11.786 11.786 0 0 0 1225 78.5 L 1238.5 78.5 L 1238.5 83 Z M 185 101 L 180 101 L 180 28 L 185 28 L 185 35.5 L 187.8 35.5 L 184 42 A 16.625 16.625 0 0 1 184.714 37.01 A 13.211 13.211 0 0 1 188.5 31.1 Q 193 27 200.3 27 A 20.429 20.429 0 0 1 206.273 27.832 A 15.933 15.933 0 0 1 213.55 32.45 A 18.536 18.536 0 0 1 217.915 41.132 A 26.975 26.975 0 0 1 218.5 46.9 L 218.5 64 A 26.524 26.524 0 0 1 217.995 69.295 A 20.249 20.249 0 0 1 216.2 74.5 A 17.76 17.76 0 0 1 212.156 79.791 A 16.778 16.778 0 0 1 209.85 81.5 A 16.655 16.655 0 0 1 203.438 83.78 A 21.649 21.649 0 0 1 200.3 84 A 20.915 20.915 0 0 1 195.121 83.392 A 15.097 15.097 0 0 1 188.5 79.85 A 13.757 13.757 0 0 1 184.054 70.435 A 18.776 18.776 0 0 1 184 69 L 186.8 75.5 L 185 75.5 L 185 83 L 185 101 Z M 599.5 64.1 L 599.5 47 Q 599.5 38 604.5 32.5 A 16.533 16.533 0 0 1 615.7 27.086 A 22.776 22.776 0 0 1 617.7 27 Q 624.9 27 629.45 31.1 A 13.547 13.547 0 0 1 633.92 40.241 A 18.826 18.826 0 0 1 634 42 L 631.2 35.5 L 633 35.5 L 633 25 L 633 10 L 638 10 L 638 83 L 633 83 L 633 75.5 L 630.2 75.5 L 634 69 A 16.456 16.456 0 0 1 633.278 73.99 A 13.196 13.196 0 0 1 629.45 79.9 A 15.689 15.689 0 0 1 621.439 83.693 A 21.907 21.907 0 0 1 617.7 84 A 19.986 19.986 0 0 1 611.566 83.101 A 16.142 16.142 0 0 1 604.5 78.55 A 18.519 18.519 0 0 1 600.051 69.685 A 26.88 26.88 0 0 1 599.5 64.1 Z M 982.1 83 L 975.9 83 L 956.6 28 L 961.8 28 L 975.8 69 Q 976.7 71.7 977.65 74.65 Q 978.377 76.909 978.841 78.434 A 102.13 102.13 0 0 1 979.1 79.3 Q 979.483 77.998 980.1 75.964 A 914.415 914.415 0 0 1 980.5 74.65 A 103.145 103.145 0 0 1 982.152 69.679 A 93.01 93.01 0 0 1 982.4 69 L 996.3 28 L 1001.4 28 L 982.1 83 Z M 659.5 64 L 659.5 47 A 26.731 26.731 0 0 1 659.95 41.978 A 19.675 19.675 0 0 1 661.85 36.45 Q 664.2 32 668.6 29.5 A 18.739 18.739 0 0 1 674.594 27.381 A 25.472 25.472 0 0 1 679.1 27 A 24.823 24.823 0 0 1 684.01 27.462 A 17.862 17.862 0 0 1 689.5 29.5 Q 693.8 32 696.15 36.45 Q 698.5 40.9 698.5 47 L 698.5 56.5 L 664.5 56.5 L 664.5 64 Q 664.5 70.179 667.298 74.148 A 13.205 13.205 0 0 0 668.3 75.4 A 12.343 12.343 0 0 0 674.851 79.148 A 18.82 18.82 0 0 0 679.1 79.6 A 19.13 19.13 0 0 0 683.177 79.188 A 13.365 13.365 0 0 0 688.35 76.9 A 13.604 13.604 0 0 0 693.118 70.364 A 17.02 17.02 0 0 0 693.4 69.5 L 698.4 69.5 A 19.288 19.288 0 0 1 695.909 75.665 A 17.215 17.215 0 0 1 691.85 80.1 A 18.305 18.305 0 0 1 684.094 83.537 A 25.679 25.679 0 0 1 679.1 84 A 25.525 25.525 0 0 1 674.088 83.531 A 18.774 18.774 0 0 1 668.6 81.55 Q 664.2 79.1 661.85 74.6 A 20.21 20.21 0 0 1 659.888 68.692 A 27.182 27.182 0 0 1 659.5 64 Z M 839.5 64 L 839.5 47 A 26.731 26.731 0 0 1 839.95 41.978 A 19.675 19.675 0 0 1 841.85 36.45 Q 844.2 32 848.6 29.5 A 18.739 18.739 0 0 1 854.594 27.381 A 25.472 25.472 0 0 1 859.1 27 A 24.823 24.823 0 0 1 864.01 27.462 A 17.862 17.862 0 0 1 869.5 29.5 Q 873.8 32 876.15 36.45 Q 878.5 40.9 878.5 47 L 878.5 56.5 L 844.5 56.5 L 844.5 64 Q 844.5 70.179 847.298 74.148 A 13.205 13.205 0 0 0 848.3 75.4 A 12.343 12.343 0 0 0 854.851 79.148 A 18.82 18.82 0 0 0 859.1 79.6 A 19.13 19.13 0 0 0 863.177 79.188 A 13.365 13.365 0 0 0 868.35 76.9 A 13.604 13.604 0 0 0 873.118 70.364 A 17.02 17.02 0 0 0 873.4 69.5 L 878.4 69.5 A 19.288 19.288 0 0 1 875.909 75.665 A 17.215 17.215 0 0 1 871.85 80.1 A 18.305 18.305 0 0 1 864.094 83.537 A 25.679 25.679 0 0 1 859.1 84 A 25.525 25.525 0 0 1 854.088 83.531 A 18.774 18.774 0 0 1 848.6 81.55 Q 844.2 79.1 841.85 74.6 A 20.21 20.21 0 0 1 839.888 68.692 A 27.182 27.182 0 0 1 839.5 64 Z M 1019.5 64 L 1019.5 47 A 26.731 26.731 0 0 1 1019.95 41.978 A 19.675 19.675 0 0 1 1021.85 36.45 Q 1024.2 32 1028.6 29.5 A 18.739 18.739 0 0 1 1034.594 27.381 A 25.472 25.472 0 0 1 1039.1 27 A 24.823 24.823 0 0 1 1044.01 27.462 A 17.862 17.862 0 0 1 1049.5 29.5 Q 1053.8 32 1056.15 36.45 Q 1058.5 40.9 1058.5 47 L 1058.5 56.5 L 1024.5 56.5 L 1024.5 64 Q 1024.5 70.179 1027.298 74.148 A 13.205 13.205 0 0 0 1028.3 75.4 A 12.343 12.343 0 0 0 1034.851 79.148 A 18.82 18.82 0 0 0 1039.1 79.6 A 19.13 19.13 0 0 0 1043.177 79.188 A 13.365 13.365 0 0 0 1048.35 76.9 A 13.604 13.604 0 0 0 1053.118 70.364 A 17.02 17.02 0 0 0 1053.4 69.5 L 1058.4 69.5 A 19.288 19.288 0 0 1 1055.909 75.665 A 17.215 17.215 0 0 1 1051.85 80.1 A 18.305 18.305 0 0 1 1044.094 83.537 A 25.679 25.679 0 0 1 1039.1 84 A 25.525 25.525 0 0 1 1034.088 83.531 A 18.774 18.774 0 0 1 1028.6 81.55 Q 1024.2 79.1 1021.85 74.6 A 20.21 20.21 0 0 1 1019.888 68.692 A 27.182 27.182 0 0 1 1019.5 64 Z M 1439.5 64 L 1439.5 47 A 26.731 26.731 0 0 1 1439.95 41.978 A 19.675 19.675 0 0 1 1441.85 36.45 Q 1444.2 32 1448.6 29.5 A 18.739 18.739 0 0 1 1454.594 27.381 A 25.472 25.472 0 0 1 1459.1 27 A 24.823 24.823 0 0 1 1464.01 27.462 A 17.862 17.862 0 0 1 1469.5 29.5 Q 1473.8 32 1476.15 36.45 Q 1478.5 40.9 1478.5 47 L 1478.5 56.5 L 1444.5 56.5 L 1444.5 64 Q 1444.5 70.179 1447.298 74.148 A 13.205 13.205 0 0 0 1448.3 75.4 A 12.343 12.343 0 0 0 1454.851 79.148 A 18.82 18.82 0 0 0 1459.1 79.6 A 19.13 19.13 0 0 0 1463.177 79.188 A 13.365 13.365 0 0 0 1468.35 76.9 A 13.604 13.604 0 0 0 1473.118 70.364 A 17.02 17.02 0 0 0 1473.4 69.5 L 1478.4 69.5 A 19.288 19.288 0 0 1 1475.909 75.665 A 17.215 17.215 0 0 1 1471.85 80.1 A 18.305 18.305 0 0 1 1464.094 83.537 A 25.679 25.679 0 0 1 1459.1 84 A 25.525 25.525 0 0 1 1454.088 83.531 A 18.774 18.774 0 0 1 1448.6 81.55 Q 1444.2 79.1 1441.85 74.6 A 20.21 20.21 0 0 1 1439.888 68.692 A 27.182 27.182 0 0 1 1439.5 64 Z M 1086.7 83 L 1081.7 83 L 1081.7 28 L 1086.7 28 L 1086.7 37.5 L 1087.9 37.5 L 1085.6 43.3 A 20.014 20.014 0 0 1 1086.362 37.927 A 15.135 15.135 0 0 1 1090.1 31.5 A 14.69 14.69 0 0 1 1098.537 27.247 A 20.728 20.728 0 0 1 1101.8 27 A 23.116 23.116 0 0 1 1107.764 27.728 A 16.541 16.541 0 0 1 1115.7 32.4 A 18.083 18.083 0 0 1 1120.141 40.878 A 26.853 26.853 0 0 1 1120.8 47 L 1120.8 50 L 1115.3 50 L 1115.3 47 A 23.529 23.529 0 0 0 1114.877 42.395 Q 1114.328 39.646 1113.067 37.514 A 12.758 12.758 0 0 0 1111.55 35.45 Q 1107.8 31.3 1101 31.3 A 17.392 17.392 0 0 0 1096.559 31.836 A 12.266 12.266 0 0 0 1090.5 35.45 Q 1087.026 39.244 1086.728 45.754 A 27.244 27.244 0 0 0 1086.7 47 L 1086.7 83 Z M 906.7 83 L 901.7 83 L 901.7 28 L 906.7 28 L 906.7 37.5 L 907.9 37.5 L 905.6 43.3 A 20.014 20.014 0 0 1 906.362 37.927 A 15.135 15.135 0 0 1 910.1 31.5 A 14.69 14.69 0 0 1 918.537 27.247 A 20.728 20.728 0 0 1 921.8 27 A 23.116 23.116 0 0 1 927.764 27.728 A 16.541 16.541 0 0 1 935.7 32.4 A 18.083 18.083 0 0 1 940.141 40.878 A 26.853 26.853 0 0 1 940.8 47 L 940.8 50 L 935.3 50 L 935.3 47 A 23.529 23.529 0 0 0 934.877 42.395 Q 934.328 39.646 933.067 37.514 A 12.758 12.758 0 0 0 931.55 35.45 Q 927.8 31.3 921 31.3 A 17.392 17.392 0 0 0 916.559 31.836 A 12.266 12.266 0 0 0 910.5 35.45 Q 907.026 39.244 906.728 45.754 A 27.244 27.244 0 0 0 906.7 47 L 906.7 83 Z M 1362.5 83 L 1318.5 83 L 1318.5 78.5 L 1338.6 78.5 L 1338.6 32.5 L 1321 32.5 L 1321 28 L 1343.6 28 L 1343.6 78.5 L 1362.5 78.5 L 1362.5 83 Z M 363.9 94 L 358.5 94 L 394.1 0 L 399.5 0 L 363.9 94 Z M 423.9 94 L 418.5 94 L 454.1 0 L 459.5 0 L 423.9 94 Z M 539.5 64 L 539.5 47 A 26.043 26.043 0 0 1 539.993 41.811 A 19.33 19.33 0 0 1 541.9 36.45 Q 544.3 32 548.7 29.5 A 18.97 18.97 0 0 1 555.29 27.269 A 24.726 24.726 0 0 1 559 27 A 23.606 23.606 0 0 1 564.202 27.549 A 18.486 18.486 0 0 1 569.3 29.5 Q 573.7 32 576.1 36.45 Q 578.5 40.9 578.5 47 L 578.5 64 A 26.126 26.126 0 0 1 577.99 69.283 A 19.679 19.679 0 0 1 576.1 74.6 Q 573.7 79.1 569.35 81.55 A 18.667 18.667 0 0 1 563.352 83.641 A 25.275 25.275 0 0 1 559 84 A 24.069 24.069 0 0 1 553.798 83.462 A 18.717 18.717 0 0 1 548.7 81.55 Q 544.3 79.1 541.9 74.6 A 20.029 20.029 0 0 1 539.852 68.436 A 26.851 26.851 0 0 1 539.5 64 Z M 573.5 64 L 573.5 47 A 22.853 22.853 0 0 0 573.066 42.401 Q 572.207 38.223 569.65 35.5 A 12.658 12.658 0 0 0 562.778 31.761 A 18.759 18.759 0 0 0 559 31.4 A 18.139 18.139 0 0 0 554.538 31.918 A 12.501 12.501 0 0 0 548.35 35.5 A 13.459 13.459 0 0 0 545.237 41.157 Q 544.65 43.233 544.53 45.711 A 26.813 26.813 0 0 0 544.5 47 L 544.5 64 A 23.258 23.258 0 0 0 544.909 68.501 Q 545.446 71.22 546.686 73.328 A 12.55 12.55 0 0 0 548.3 75.5 A 12.397 12.397 0 0 0 554.806 79.159 A 18.803 18.803 0 0 0 559 79.6 A 18.628 18.628 0 0 0 563.377 79.116 A 12.351 12.351 0 0 0 569.7 75.5 Q 573.5 71.4 573.5 64 Z M 633 64.1 L 633 47 A 23.529 23.529 0 0 0 632.577 42.395 Q 632.028 39.646 630.767 37.514 A 12.758 12.758 0 0 0 629.25 35.45 Q 625.5 31.3 618.7 31.3 A 17.355 17.355 0 0 0 614.309 31.824 A 12.085 12.085 0 0 0 608.25 35.45 A 13.718 13.718 0 0 0 605.27 40.961 Q 604.668 43.059 604.537 45.565 A 27.368 27.368 0 0 0 604.5 47 L 604.5 64.1 Q 604.5 69.94 606.9 73.764 A 12.834 12.834 0 0 0 608.25 75.55 A 12.264 12.264 0 0 0 615.165 79.372 A 18.119 18.119 0 0 0 618.7 79.7 A 17.903 17.903 0 0 0 623.015 79.21 A 12.12 12.12 0 0 0 629.25 75.55 A 13.796 13.796 0 0 0 632.282 69.885 Q 633 67.294 633 64.1 Z M 213.5 64 L 213.5 46.9 A 23.559 23.559 0 0 0 213.096 42.399 Q 212.27 38.155 209.75 35.4 A 12.282 12.282 0 0 0 202.927 31.643 A 18.249 18.249 0 0 0 199.3 31.3 A 17.593 17.593 0 0 0 194.859 31.83 A 12.295 12.295 0 0 0 188.8 35.4 Q 185 39.5 185 46.9 L 185 64 A 23.229 23.229 0 0 0 185.429 68.605 Q 185.992 71.387 187.294 73.537 A 12.762 12.762 0 0 0 188.8 75.55 A 12.483 12.483 0 0 0 195.922 79.403 A 18.325 18.325 0 0 0 199.3 79.7 A 17.355 17.355 0 0 0 203.691 79.176 A 12.085 12.085 0 0 0 209.75 75.55 A 13.718 13.718 0 0 0 212.73 70.039 Q 213.332 67.941 213.463 65.435 A 27.368 27.368 0 0 0 213.5 64 Z M 1413 59.1 L 1413 47 A 23.529 23.529 0 0 0 1412.577 42.395 Q 1412.028 39.646 1410.767 37.514 A 12.758 12.758 0 0 0 1409.25 35.45 Q 1405.5 31.3 1398.7 31.3 A 17.355 17.355 0 0 0 1394.309 31.824 A 12.085 12.085 0 0 0 1388.25 35.45 A 13.718 13.718 0 0 0 1385.27 40.961 Q 1384.668 43.059 1384.537 45.565 A 27.368 27.368 0 0 0 1384.5 47 L 1384.5 59.1 Q 1384.5 64.94 1386.9 68.764 A 12.834 12.834 0 0 0 1388.25 70.55 A 12.264 12.264 0 0 0 1395.165 74.372 A 18.119 18.119 0 0 0 1398.7 74.7 A 17.903 17.903 0 0 0 1403.015 74.21 A 12.12 12.12 0 0 0 1409.25 70.55 A 13.796 13.796 0 0 0 1412.282 64.885 Q 1413 62.294 1413 59.1 Z M 1773 59.1 L 1773 47 A 23.529 23.529 0 0 0 1772.577 42.395 Q 1772.028 39.646 1770.767 37.514 A 12.758 12.758 0 0 0 1769.25 35.45 Q 1765.5 31.3 1758.7 31.3 A 17.355 17.355 0 0 0 1754.309 31.824 A 12.085 12.085 0 0 0 1748.25 35.45 A 13.718 13.718 0 0 0 1745.27 40.961 Q 1744.668 43.059 1744.537 45.565 A 27.368 27.368 0 0 0 1744.5 47 L 1744.5 59.1 Q 1744.5 64.94 1746.9 68.764 A 12.834 12.834 0 0 0 1748.25 70.55 A 12.264 12.264 0 0 0 1755.165 74.372 A 18.119 18.119 0 0 0 1758.7 74.7 A 17.903 17.903 0 0 0 1763.015 74.21 A 12.12 12.12 0 0 0 1769.25 70.55 A 13.796 13.796 0 0 0 1772.282 64.885 Q 1773 62.294 1773 59.1 Z M 1293.2 66.3 L 1293.2 56.4 L 1274.2 56.4 A 16.08 16.08 0 0 0 1270.445 56.815 A 11.204 11.204 0 0 0 1265.5 59.35 A 9.738 9.738 0 0 0 1262.252 66.005 A 13.535 13.535 0 0 0 1262.2 67.2 A 11.825 11.825 0 0 0 1263.112 71.906 A 11.268 11.268 0 0 0 1266.35 76.15 Q 1270.5 79.6 1277.3 79.6 A 22.235 22.235 0 0 0 1282.245 79.08 A 15.285 15.285 0 0 0 1288.8 75.9 A 11.836 11.836 0 0 0 1293.168 67.298 A 15.102 15.102 0 0 0 1293.2 66.3 Z M 1653.2 66.3 L 1653.2 56.4 L 1634.2 56.4 A 16.08 16.08 0 0 0 1630.445 56.815 A 11.204 11.204 0 0 0 1625.5 59.35 A 9.738 9.738 0 0 0 1622.252 66.005 A 13.535 13.535 0 0 0 1622.2 67.2 A 11.825 11.825 0 0 0 1623.112 71.906 A 11.268 11.268 0 0 0 1626.35 76.15 Q 1630.5 79.6 1637.3 79.6 A 22.235 22.235 0 0 0 1642.245 79.08 A 15.285 15.285 0 0 0 1648.8 75.9 A 11.836 11.836 0 0 0 1653.168 67.298 A 15.102 15.102 0 0 0 1653.2 66.3 Z M 694.6 52.2 L 693.5 53.1 L 693.5 47 A 22.366 22.366 0 0 0 693.037 42.308 Q 692.182 38.323 689.75 35.6 A 12.188 12.188 0 0 0 683.105 31.81 A 18.479 18.479 0 0 0 679.1 31.4 A 18.901 18.901 0 0 0 674.712 31.879 A 12.341 12.341 0 0 0 668.3 35.55 Q 664.5 39.7 664.5 47 L 664.5 52.2 L 694.6 52.2 Z M 874.6 52.2 L 873.5 53.1 L 873.5 47 A 22.366 22.366 0 0 0 873.037 42.308 Q 872.182 38.323 869.75 35.6 A 12.188 12.188 0 0 0 863.105 31.81 A 18.479 18.479 0 0 0 859.1 31.4 A 18.901 18.901 0 0 0 854.712 31.879 A 12.341 12.341 0 0 0 848.3 35.55 Q 844.5 39.7 844.5 47 L 844.5 52.2 L 874.6 52.2 Z M 1054.6 52.2 L 1053.5 53.1 L 1053.5 47 A 22.366 22.366 0 0 0 1053.037 42.308 Q 1052.182 38.323 1049.75 35.6 A 12.188 12.188 0 0 0 1043.105 31.81 A 18.479 18.479 0 0 0 1039.1 31.4 A 18.901 18.901 0 0 0 1034.712 31.879 A 12.341 12.341 0 0 0 1028.3 35.55 Q 1024.5 39.7 1024.5 47 L 1024.5 52.2 L 1054.6 52.2 Z M 1474.6 52.2 L 1473.5 53.1 L 1473.5 47 A 22.366 22.366 0 0 0 1473.037 42.308 Q 1472.182 38.323 1469.75 35.6 A 12.188 12.188 0 0 0 1463.105 31.81 A 18.479 18.479 0 0 0 1459.1 31.4 A 18.901 18.901 0 0 0 1454.712 31.879 A 12.341 12.341 0 0 0 1448.3 35.55 Q 1444.5 39.7 1444.5 47 L 1444.5 52.2 L 1474.6 52.2 Z M 755 52.2 L 723 52.2 L 723 47.7 L 755 47.7 L 755 52.2 Z M 1156.744 83.735 A 9.088 9.088 0 0 0 1159 84 A 9.454 9.454 0 0 0 1160.844 83.829 A 6.435 6.435 0 0 0 1164.35 81.95 A 6.821 6.821 0 0 0 1166.026 78.86 A 9.618 9.618 0 0 0 1166.3 76.5 A 9.616 9.616 0 0 0 1166.07 74.334 A 6.448 6.448 0 0 0 1164.35 71.15 A 6.43 6.43 0 0 0 1161.234 69.446 A 9.553 9.553 0 0 0 1159 69.2 A 9.616 9.616 0 0 0 1156.834 69.43 A 6.448 6.448 0 0 0 1153.65 71.15 A 6.43 6.43 0 0 0 1151.946 74.266 A 9.553 9.553 0 0 0 1151.7 76.5 A 9.977 9.977 0 0 0 1151.881 78.447 A 6.921 6.921 0 0 0 1153.65 81.95 A 6.343 6.343 0 0 0 1156.744 83.735 Z M 1516.744 83.735 A 9.088 9.088 0 0 0 1519 84 A 9.454 9.454 0 0 0 1520.844 83.829 A 6.435 6.435 0 0 0 1524.35 81.95 A 6.821 6.821 0 0 0 1526.026 78.86 A 9.618 9.618 0 0 0 1526.3 76.5 A 9.616 9.616 0 0 0 1526.07 74.334 A 6.448 6.448 0 0 0 1524.35 71.15 A 6.43 6.43 0 0 0 1521.234 69.446 A 9.553 9.553 0 0 0 1519 69.2 A 9.616 9.616 0 0 0 1516.834 69.43 A 6.448 6.448 0 0 0 1513.65 71.15 A 6.43 6.43 0 0 0 1511.946 74.266 A 9.553 9.553 0 0 0 1511.7 76.5 A 9.977 9.977 0 0 0 1511.881 78.447 A 6.921 6.921 0 0 0 1513.65 81.95 A 6.343 6.343 0 0 0 1516.744 83.735 Z M 316.642 41.101 A 8.825 8.825 0 0 0 319 41.4 Q 322.3 41.4 324.3 39.4 A 6.559 6.559 0 0 0 325.97 36.602 A 8.34 8.34 0 0 0 326.3 34.2 A 9.255 9.255 0 0 0 326.23 33.042 A 6.735 6.735 0 0 0 324.3 29 A 6.557 6.557 0 0 0 321.358 27.299 A 8.825 8.825 0 0 0 319 27 Q 315.7 27 313.7 29 A 6.559 6.559 0 0 0 312.03 31.798 A 8.34 8.34 0 0 0 311.7 34.2 A 9.255 9.255 0 0 0 311.77 35.358 A 6.735 6.735 0 0 0 313.7 39.4 A 6.557 6.557 0 0 0 316.642 41.101 Z M 316.642 83.701 A 8.825 8.825 0 0 0 319 84 Q 322.3 84 324.3 82 A 6.559 6.559 0 0 0 325.97 79.202 A 8.34 8.34 0 0 0 326.3 76.8 A 9.255 9.255 0 0 0 326.23 75.642 A 6.735 6.735 0 0 0 324.3 71.6 A 6.557 6.557 0 0 0 321.358 69.899 A 8.825 8.825 0 0 0 319 69.6 Q 315.7 69.6 313.7 71.6 A 6.559 6.559 0 0 0 312.03 74.398 A 8.34 8.34 0 0 0 311.7 76.8 A 9.255 9.255 0 0 0 311.77 77.958 A 6.735 6.735 0 0 0 313.7 82 A 6.557 6.557 0 0 0 316.642 83.701 Z M 1338.639 17.276 A 7.327 7.327 0 0 0 1340.5 17.5 A 7.72 7.72 0 0 0 1341.888 17.381 A 5.442 5.442 0 0 0 1344.7 16 A 4.852 4.852 0 0 0 1346.056 13.8 A 6.317 6.317 0 0 0 1346.3 12 A 7.004 7.004 0 0 0 1346.243 11.089 A 4.983 4.983 0 0 0 1344.7 8 A 5.337 5.337 0 0 0 1342.361 6.724 A 7.327 7.327 0 0 0 1340.5 6.5 A 7.72 7.72 0 0 0 1339.112 6.619 A 5.442 5.442 0 0 0 1336.3 8 A 4.852 4.852 0 0 0 1334.944 10.2 A 6.317 6.317 0 0 0 1334.7 12 A 7.004 7.004 0 0 0 1334.757 12.911 A 4.983 4.983 0 0 0 1336.3 16 A 5.337 5.337 0 0 0 1338.639 17.276 Z"/></g></svg>