<svg width="1538.001" height="101" viewBox="0 0 1538.001 101" xmlns="http://www.w3.org/2000/svg"><g id="svgGroup" stroke-linecap="round" fill-rule="evenodd" font-size="9pt" stroke="#00a6ff" stroke-width="0mm" fill="#00a6ff" style="stroke:#00a6ff;stroke-width:0mm;fill:#00a6ff"><path d="M 1329.9 83 L 1323.3 83 L 1314 28 L 1318.8 28 L 1325.6 68.9 Q 1326 71.1 1326.4 74.25 Q 1326.8 77.4 1327 79.5 A 56.336 56.336 0 0 1 1327.187 77.823 Q 1327.384 76.262 1327.7 74.3 A 374.135 374.135 0 0 1 1328.061 72.102 Q 1328.35 70.375 1328.6 69 L 1336.6 28 L 1341.6 28 L 1349.6 69 A 50.502 50.502 0 0 1 1349.968 70.777 Q 1350.156 71.768 1350.336 72.896 A 99.229 99.229 0 0 1 1350.55 74.3 Q 1351 77.4 1351.2 79.5 Q 1351.395 77.451 1351.733 74.402 A 600.646 600.646 0 0 1 1351.75 74.25 Q 1352.1 71.1 1352.5 68.9 L 1359.3 28 L 1364 28 L 1354.6 83 L 1348 83 L 1341.1 43.9 A 173.174 173.174 0 0 0 1340.658 41.085 Q 1340.413 39.599 1340.119 37.956 A 284.966 284.966 0 0 0 1340.1 37.85 Q 1339.53 34.667 1339.14 32.522 A 1154.75 1154.75 0 0 0 1339.1 32.3 Q 1338.72 34.39 1338.204 37.519 A 586.018 586.018 0 0 0 1338.15 37.85 Q 1337.6 41.2 1337.1 43.9 L 1329.9 83 Z M 5 83 L 0 83 L 0 10 L 5 10 L 5 25 L 5 36 L 7.3 36 L 4.3 42 A 17.037 17.037 0 0 1 4.971 37.099 A 13.254 13.254 0 0 1 8.7 31.1 A 14.955 14.955 0 0 1 16.222 27.371 A 21.402 21.402 0 0 1 20.3 27 A 20.47 20.47 0 0 1 26.14 27.793 A 15.871 15.871 0 0 1 33.3 32.2 Q 38.2 37.4 38.2 46.3 L 38.2 83 L 33.2 83 L 33.2 47 A 23.529 23.529 0 0 0 32.777 42.395 Q 32.228 39.646 30.967 37.514 A 12.758 12.758 0 0 0 29.45 35.45 A 12.365 12.365 0 0 0 21.699 31.458 A 17.569 17.569 0 0 0 19.3 31.3 Q 12.7 31.3 8.85 35.5 A 14.03 14.03 0 0 0 5.637 41.574 Q 5 44.031 5 47 L 5 83 Z M 262.9 84 L 256.2 84 Q 251.2 84 247.35 82.15 A 16.133 16.133 0 0 1 242.084 78.187 A 15.634 15.634 0 0 1 241.15 77 Q 238.8 73.7 238.3 69.5 L 243.3 69.5 Q 244.1 73.8 247.55 76.65 A 12.292 12.292 0 0 0 253.561 79.299 A 16.707 16.707 0 0 0 256.2 79.5 L 262.9 79.5 A 17.155 17.155 0 0 0 266.483 79.148 Q 268.764 78.66 270.502 77.499 A 10.023 10.023 0 0 0 271.6 76.65 Q 274.8 73.8 274.8 69 A 12.034 12.034 0 0 0 274.202 65.139 A 10.38 10.38 0 0 0 272.25 61.7 Q 269.7 58.7 265.3 58.1 L 254.6 56.6 A 25.437 25.437 0 0 1 249.877 55.488 Q 246.168 54.205 243.7 51.8 A 12.742 12.742 0 0 1 239.898 43.773 A 17.505 17.505 0 0 1 239.8 41.9 Q 239.8 35.1 244.55 31.05 A 16.283 16.283 0 0 1 251.301 27.668 Q 253.738 27.063 256.603 27.006 A 30.127 30.127 0 0 1 257.2 27 L 261.4 27 A 24.868 24.868 0 0 1 266.739 27.542 Q 270.47 28.362 273.279 30.42 A 15.722 15.722 0 0 1 273.65 30.7 Q 278.4 34.4 279.1 40.5 L 274.1 40.5 A 9.577 9.577 0 0 0 270.564 34.415 A 12.641 12.641 0 0 0 270.1 34.05 Q 266.786 31.565 261.668 31.502 A 21.733 21.733 0 0 0 261.4 31.5 L 257.2 31.5 A 18.17 18.17 0 0 0 253.466 31.862 Q 251.116 32.355 249.307 33.522 A 10.649 10.649 0 0 0 248.25 34.3 Q 244.9 37.1 244.9 41.8 A 10.087 10.087 0 0 0 245.341 44.854 A 8.079 8.079 0 0 0 247.6 48.4 A 11.025 11.025 0 0 0 250.54 50.317 Q 252.611 51.263 255.4 51.7 L 265.9 53.2 A 19.236 19.236 0 0 1 270.843 54.555 A 14.991 14.991 0 0 1 275.95 58.15 A 13.964 13.964 0 0 1 279.626 66.625 A 18.533 18.533 0 0 1 279.7 68.3 A 17.98 17.98 0 0 1 279.006 73.42 A 13.936 13.936 0 0 1 275.15 79.7 A 15.286 15.286 0 0 1 267.822 83.492 A 22.559 22.559 0 0 1 262.9 84 Z M 1160.9 101 L 1146.4 101 L 1146.4 96.5 L 1160.9 96.5 A 18.242 18.242 0 0 0 1164.392 96.187 Q 1166.398 95.795 1167.954 94.914 A 9.297 9.297 0 0 0 1169.9 93.45 A 9.722 9.722 0 0 0 1172.352 89.298 Q 1172.828 87.755 1172.954 85.891 A 20.575 20.575 0 0 0 1173 84.5 L 1173 80 L 1173 68.5 L 1171.2 68.5 L 1173.7 64 A 17.037 17.037 0 0 1 1173.029 68.901 A 13.254 13.254 0 0 1 1169.3 74.9 A 14.955 14.955 0 0 1 1161.778 78.629 A 21.402 21.402 0 0 1 1157.7 79 A 19.986 19.986 0 0 1 1151.566 78.101 A 16.142 16.142 0 0 1 1144.5 73.55 A 18.519 18.519 0 0 1 1140.051 64.685 A 26.88 26.88 0 0 1 1139.5 59.1 L 1139.5 47 Q 1139.5 38 1144.5 32.5 A 16.533 16.533 0 0 1 1155.7 27.086 A 22.776 22.776 0 0 1 1157.7 27 A 20.608 20.608 0 0 1 1162.706 27.577 A 14.733 14.733 0 0 1 1169.3 31.1 A 13.614 13.614 0 0 1 1173.569 39.736 A 19.04 19.04 0 0 1 1173.7 42 L 1171.7 37.5 L 1173 37.5 L 1173 28 L 1178 28 L 1178 84.5 A 24.613 24.613 0 0 1 1177.575 89.229 Q 1177.042 91.948 1175.84 94.045 A 12.322 12.322 0 0 1 1173.65 96.85 Q 1170.014 100.319 1163.547 100.888 A 30.211 30.211 0 0 1 1160.9 101 Z M 1520.9 101 L 1506.4 101 L 1506.4 96.5 L 1520.9 96.5 A 18.242 18.242 0 0 0 1524.392 96.187 Q 1526.398 95.795 1527.954 94.914 A 9.297 9.297 0 0 0 1529.9 93.45 A 9.722 9.722 0 0 0 1532.352 89.298 Q 1532.828 87.755 1532.954 85.891 A 20.575 20.575 0 0 0 1533 84.5 L 1533 80 L 1533 68.5 L 1531.2 68.5 L 1533.7 64 A 17.037 17.037 0 0 1 1533.029 68.901 A 13.254 13.254 0 0 1 1529.3 74.9 A 14.955 14.955 0 0 1 1521.778 78.629 A 21.402 21.402 0 0 1 1517.7 79 A 19.986 19.986 0 0 1 1511.566 78.101 A 16.142 16.142 0 0 1 1504.5 73.55 A 18.519 18.519 0 0 1 1500.051 64.685 A 26.88 26.88 0 0 1 1499.5 59.1 L 1499.5 47 Q 1499.5 38 1504.5 32.5 A 16.533 16.533 0 0 1 1515.7 27.086 A 22.776 22.776 0 0 1 1517.7 27 A 20.608 20.608 0 0 1 1522.706 27.577 A 14.733 14.733 0 0 1 1529.3 31.1 A 13.614 13.614 0 0 1 1533.569 39.736 A 19.04 19.04 0 0 1 1533.7 42 L 1531.7 37.5 L 1533 37.5 L 1533 28 L 1538 28 L 1538 84.5 A 24.613 24.613 0 0 1 1537.575 89.229 Q 1537.042 91.948 1535.84 94.045 A 12.322 12.322 0 0 1 1533.65 96.85 Q 1530.014 100.319 1523.547 100.888 A 30.211 30.211 0 0 1 1520.9 101 Z M 1445 83 L 1440 83 L 1440 28 L 1445 28 L 1445 37.5 L 1447.3 37.5 L 1444.3 42.6 A 18.816 18.816 0 0 1 1444.912 37.676 A 13.875 13.875 0 0 1 1448.65 31.25 A 14.591 14.591 0 0 1 1456.213 27.377 A 21.117 21.117 0 0 1 1460.3 27 A 20.47 20.47 0 0 1 1466.14 27.793 A 15.871 15.871 0 0 1 1473.3 32.2 Q 1478.2 37.4 1478.2 46.3 L 1478.2 83 L 1473.2 83 L 1473.2 47 A 23.529 23.529 0 0 0 1472.777 42.395 Q 1472.228 39.646 1470.967 37.514 A 12.758 12.758 0 0 0 1469.45 35.45 A 12.365 12.365 0 0 0 1461.699 31.458 A 17.569 17.569 0 0 0 1459.3 31.3 Q 1452.7 31.3 1448.85 35.5 A 14.03 14.03 0 0 0 1445.637 41.574 Q 1445 44.031 1445 47 L 1445 83 Z M 674 101 L 668.9 101 L 677 79.1 L 656.6 28 L 662.2 28 L 675.8 63 L 678 68.6 A 181.078 181.078 0 0 1 678.512 69.919 Q 679.225 71.775 679.6 72.9 Q 680.059 71.752 680.753 69.812 A 221.558 221.558 0 0 0 681.2 68.55 Q 682.2 65.7 683.2 62.8 L 695.9 28 L 701.4 28 L 674 101 Z M 1034.3 52 L 1053.2 52 L 1053.2 45.5 Q 1053.2 40.167 1050.849 36.76 A 11.22 11.22 0 0 0 1049.6 35.25 A 11.713 11.713 0 0 0 1044.183 32.179 Q 1042.03 31.6 1039.4 31.6 A 20.092 20.092 0 0 0 1035.033 32.05 A 14.129 14.129 0 0 0 1029.5 34.55 A 11.561 11.561 0 0 0 1024.923 42.344 A 14.656 14.656 0 0 0 1024.9 42.5 L 1019.9 42.5 Q 1020.9 35.5 1026.25 31.25 A 19.431 19.431 0 0 1 1035.878 27.233 A 25.776 25.776 0 0 1 1039.4 27 A 22.989 22.989 0 0 1 1045.417 27.747 A 16.931 16.931 0 0 1 1053.05 32.1 Q 1058.2 37.2 1058.2 45.5 L 1058.2 83 L 1053.2 83 L 1053.2 71.8 L 1052.3 71.8 L 1053.9 69.8 A 13.36 13.36 0 0 1 1052.884 75.087 Q 1051.676 77.922 1049.034 80.033 A 15.724 15.724 0 0 1 1048.95 80.1 A 17.363 17.363 0 0 1 1042.385 83.254 Q 1039.857 83.895 1036.885 83.985 A 32.465 32.465 0 0 1 1035.9 84 A 26.128 26.128 0 0 1 1030.23 83.419 Q 1026.15 82.512 1023.139 80.192 A 16.359 16.359 0 0 1 1022.3 79.5 Q 1017.2 75 1017.2 67.6 A 17.368 17.368 0 0 1 1017.917 62.488 A 13.677 13.677 0 0 1 1021.9 56.25 A 16.046 16.046 0 0 1 1029.517 52.469 A 23.201 23.201 0 0 1 1034.3 52 Z M 1394.3 52 L 1413.2 52 L 1413.2 45.5 Q 1413.2 40.167 1410.849 36.76 A 11.22 11.22 0 0 0 1409.6 35.25 A 11.713 11.713 0 0 0 1404.183 32.179 Q 1402.03 31.6 1399.4 31.6 A 20.092 20.092 0 0 0 1395.033 32.05 A 14.129 14.129 0 0 0 1389.5 34.55 A 11.561 11.561 0 0 0 1384.923 42.344 A 14.656 14.656 0 0 0 1384.9 42.5 L 1379.9 42.5 Q 1380.9 35.5 1386.25 31.25 A 19.431 19.431 0 0 1 1395.878 27.233 A 25.776 25.776 0 0 1 1399.4 27 A 22.989 22.989 0 0 1 1405.417 27.747 A 16.931 16.931 0 0 1 1413.05 32.1 Q 1418.2 37.2 1418.2 45.5 L 1418.2 83 L 1413.2 83 L 1413.2 71.8 L 1412.3 71.8 L 1413.9 69.8 A 13.36 13.36 0 0 1 1412.884 75.087 Q 1411.676 77.922 1409.034 80.033 A 15.724 15.724 0 0 1 1408.95 80.1 A 17.363 17.363 0 0 1 1402.385 83.254 Q 1399.857 83.895 1396.885 83.985 A 32.465 32.465 0 0 1 1395.9 84 A 26.128 26.128 0 0 1 1390.23 83.419 Q 1386.15 82.512 1383.139 80.192 A 16.359 16.359 0 0 1 1382.3 79.5 Q 1377.2 75 1377.2 67.6 A 17.368 17.368 0 0 1 1377.917 62.488 A 13.677 13.677 0 0 1 1381.9 56.25 A 16.046 16.046 0 0 1 1389.517 52.469 A 23.201 23.201 0 0 1 1394.3 52 Z M 539.8 63.6 L 539.8 28 L 544.8 28 L 544.8 63.6 A 24.149 24.149 0 0 0 545.223 68.267 Q 545.759 70.986 546.974 73.107 A 12.913 12.913 0 0 0 548.55 75.3 A 12.308 12.308 0 0 0 555.94 79.265 A 17.915 17.915 0 0 0 558.9 79.5 A 17.196 17.196 0 0 0 563.341 78.958 A 12.239 12.239 0 0 0 569.4 75.3 Q 572.823 71.516 573.163 65.054 A 27.739 27.739 0 0 0 573.2 63.6 L 573.2 28 L 578.2 28 L 578.2 63.6 A 27.718 27.718 0 0 1 577.535 69.853 Q 576.349 74.977 573.05 78.5 A 17.005 17.005 0 0 1 563.34 83.634 A 24.653 24.653 0 0 1 559 84 A 23.889 23.889 0 0 1 553.065 83.304 A 16.541 16.541 0 0 1 544.9 78.55 A 18.149 18.149 0 0 1 540.594 70.466 Q 539.874 67.64 539.807 64.297 A 34.567 34.567 0 0 1 539.8 63.6 Z M 98.5 83 L 85 83 A 19.88 19.88 0 0 1 81.267 82.672 Q 79.12 82.261 77.447 81.335 A 10.091 10.091 0 0 1 75.35 79.8 Q 72.276 76.864 72.023 71.486 A 20.953 20.953 0 0 1 72 70.5 L 72 32.5 L 56 32.5 L 56 28 L 72 28 L 72 12.5 L 77 12.5 L 77 28 L 99.5 28 L 99.5 32.5 L 77 32.5 L 77 70.5 Q 77 76.848 82.037 78.159 A 11.786 11.786 0 0 0 85 78.5 L 98.5 78.5 L 98.5 83 Z M 158.5 83 L 145 83 A 19.88 19.88 0 0 1 141.267 82.672 Q 139.12 82.261 137.447 81.335 A 10.091 10.091 0 0 1 135.35 79.8 Q 132.276 76.864 132.023 71.486 A 20.953 20.953 0 0 1 132 70.5 L 132 32.5 L 116 32.5 L 116 28 L 132 28 L 132 12.5 L 137 12.5 L 137 28 L 159.5 28 L 159.5 32.5 L 137 32.5 L 137 70.5 Q 137 76.848 142.037 78.159 A 11.786 11.786 0 0 0 145 78.5 L 158.5 78.5 L 158.5 83 Z M 758.5 83 L 745 83 A 19.88 19.88 0 0 1 741.267 82.672 Q 739.12 82.261 737.447 81.335 A 10.091 10.091 0 0 1 735.35 79.8 Q 732.276 76.864 732.023 71.486 A 20.953 20.953 0 0 1 732 70.5 L 732 32.5 L 716 32.5 L 716 28 L 732 28 L 732 12.5 L 737 12.5 L 737 28 L 759.5 28 L 759.5 32.5 L 737 32.5 L 737 70.5 Q 737 76.848 742.037 78.159 A 11.786 11.786 0 0 0 745 78.5 L 758.5 78.5 L 758.5 83 Z M 998.5 83 L 985 83 A 19.88 19.88 0 0 1 981.267 82.672 Q 979.12 82.261 977.447 81.335 A 10.091 10.091 0 0 1 975.35 79.8 Q 972.276 76.864 972.023 71.486 A 20.953 20.953 0 0 1 972 70.5 L 972 32.5 L 956 32.5 L 956 28 L 972 28 L 972 12.5 L 977 12.5 L 977 28 L 999.5 28 L 999.5 32.5 L 977 32.5 L 977 70.5 Q 977 76.848 982.037 78.159 A 11.786 11.786 0 0 0 985 78.5 L 998.5 78.5 L 998.5 83 Z M 185 101 L 180 101 L 180 28 L 185 28 L 185 35.5 L 187.8 35.5 L 184 42 A 16.625 16.625 0 0 1 184.714 37.01 A 13.211 13.211 0 0 1 188.5 31.1 Q 193 27 200.3 27 A 20.429 20.429 0 0 1 206.273 27.832 A 15.933 15.933 0 0 1 213.55 32.45 A 18.536 18.536 0 0 1 217.915 41.132 A 26.975 26.975 0 0 1 218.5 46.9 L 218.5 64 A 26.524 26.524 0 0 1 217.995 69.295 A 20.249 20.249 0 0 1 216.2 74.5 A 17.76 17.76 0 0 1 212.156 79.791 A 16.778 16.778 0 0 1 209.85 81.5 A 16.655 16.655 0 0 1 203.438 83.78 A 21.649 21.649 0 0 1 200.3 84 A 20.915 20.915 0 0 1 195.121 83.392 A 15.097 15.097 0 0 1 188.5 79.85 A 13.757 13.757 0 0 1 184.054 70.435 A 18.776 18.776 0 0 1 184 69 L 186.8 75.5 L 185 75.5 L 185 83 L 185 101 Z M 605 101 L 600 101 L 600 28 L 605 28 L 605 35.5 L 607.8 35.5 L 604 42 A 16.625 16.625 0 0 1 604.714 37.01 A 13.211 13.211 0 0 1 608.5 31.1 Q 613 27 620.3 27 A 20.429 20.429 0 0 1 626.273 27.832 A 15.933 15.933 0 0 1 633.55 32.45 A 18.536 18.536 0 0 1 637.915 41.132 A 26.975 26.975 0 0 1 638.5 46.9 L 638.5 64 A 26.524 26.524 0 0 1 637.995 69.295 A 20.249 20.249 0 0 1 636.2 74.5 A 17.76 17.76 0 0 1 632.156 79.791 A 16.778 16.778 0 0 1 629.85 81.5 A 16.655 16.655 0 0 1 623.438 83.78 A 21.649 21.649 0 0 1 620.3 84 A 20.915 20.915 0 0 1 615.121 83.392 A 15.097 15.097 0 0 1 608.5 79.85 A 13.757 13.757 0 0 1 604.054 70.435 A 18.776 18.776 0 0 1 604 69 L 606.8 75.5 L 605 75.5 L 605 83 L 605 101 Z M 492 101 L 478.5 101 L 478.5 96.5 L 492 96.5 A 21.489 21.489 0 0 0 496.101 96.134 Q 500.241 95.328 502.75 92.75 A 12.112 12.112 0 0 0 505.651 87.676 Q 506.213 85.798 506.353 83.544 A 24.822 24.822 0 0 0 506.4 82 L 506.4 32.5 L 481.4 32.5 L 481.4 28 L 511.4 28 L 511.4 82 A 24.995 24.995 0 0 1 510.77 87.782 A 16.632 16.632 0 0 1 506.3 95.95 A 16.693 16.693 0 0 1 498.68 100.198 Q 496.042 100.9 492.906 100.987 A 32.426 32.426 0 0 1 492 101 Z M 779.5 64 L 779.5 47 A 26.731 26.731 0 0 1 779.95 41.978 A 19.675 19.675 0 0 1 781.85 36.45 Q 784.2 32 788.6 29.5 A 18.739 18.739 0 0 1 794.594 27.381 A 25.472 25.472 0 0 1 799.1 27 A 24.823 24.823 0 0 1 804.01 27.462 A 17.862 17.862 0 0 1 809.5 29.5 Q 813.8 32 816.15 36.45 Q 818.5 40.9 818.5 47 L 818.5 56.5 L 784.5 56.5 L 784.5 64 Q 784.5 70.179 787.298 74.148 A 13.205 13.205 0 0 0 788.3 75.4 A 12.343 12.343 0 0 0 794.851 79.148 A 18.82 18.82 0 0 0 799.1 79.6 A 19.13 19.13 0 0 0 803.177 79.188 A 13.365 13.365 0 0 0 808.35 76.9 A 13.604 13.604 0 0 0 813.118 70.364 A 17.02 17.02 0 0 0 813.4 69.5 L 818.4 69.5 A 19.288 19.288 0 0 1 815.909 75.665 A 17.215 17.215 0 0 1 811.85 80.1 A 18.305 18.305 0 0 1 804.094 83.537 A 25.679 25.679 0 0 1 799.1 84 A 25.525 25.525 0 0 1 794.088 83.531 A 18.774 18.774 0 0 1 788.6 81.55 Q 784.2 79.1 781.85 74.6 A 20.21 20.21 0 0 1 779.888 68.692 A 27.182 27.182 0 0 1 779.5 64 Z M 1199.5 64 L 1199.5 47 A 26.731 26.731 0 0 1 1199.95 41.978 A 19.675 19.675 0 0 1 1201.85 36.45 Q 1204.2 32 1208.6 29.5 A 18.739 18.739 0 0 1 1214.594 27.381 A 25.472 25.472 0 0 1 1219.1 27 A 24.823 24.823 0 0 1 1224.01 27.462 A 17.862 17.862 0 0 1 1229.5 29.5 Q 1233.8 32 1236.15 36.45 Q 1238.5 40.9 1238.5 47 L 1238.5 56.5 L 1204.5 56.5 L 1204.5 64 Q 1204.5 70.179 1207.298 74.148 A 13.205 13.205 0 0 0 1208.3 75.4 A 12.343 12.343 0 0 0 1214.851 79.148 A 18.82 18.82 0 0 0 1219.1 79.6 A 19.13 19.13 0 0 0 1223.177 79.188 A 13.365 13.365 0 0 0 1228.35 76.9 A 13.604 13.604 0 0 0 1233.118 70.364 A 17.02 17.02 0 0 0 1233.4 69.5 L 1238.4 69.5 A 19.288 19.288 0 0 1 1235.909 75.665 A 17.215 17.215 0 0 1 1231.85 80.1 A 18.305 18.305 0 0 1 1224.094 83.537 A 25.679 25.679 0 0 1 1219.1 84 A 25.525 25.525 0 0 1 1214.088 83.531 A 18.774 18.774 0 0 1 1208.6 81.55 Q 1204.2 79.1 1201.85 74.6 A 20.21 20.21 0 0 1 1199.888 68.692 A 27.182 27.182 0 0 1 1199.5 64 Z M 846.7 83 L 841.7 83 L 841.7 28 L 846.7 28 L 846.7 37.5 L 847.9 37.5 L 845.6 43.3 A 20.014 20.014 0 0 1 846.362 37.927 A 15.135 15.135 0 0 1 850.1 31.5 A 14.69 14.69 0 0 1 858.537 27.247 A 20.728 20.728 0 0 1 861.8 27 A 23.116 23.116 0 0 1 867.764 27.728 A 16.541 16.541 0 0 1 875.7 32.4 A 18.083 18.083 0 0 1 880.141 40.878 A 26.853 26.853 0 0 1 880.8 47 L 880.8 50 L 875.3 50 L 875.3 47 A 23.529 23.529 0 0 0 874.877 42.395 Q 874.328 39.646 873.067 37.514 A 12.758 12.758 0 0 0 871.55 35.45 Q 867.8 31.3 861 31.3 A 17.392 17.392 0 0 0 856.559 31.836 A 12.266 12.266 0 0 0 850.5 35.45 Q 847.026 39.244 846.728 45.754 A 27.244 27.244 0 0 0 846.7 47 L 846.7 83 Z M 1122.5 83 L 1078.5 83 L 1078.5 78.5 L 1098.6 78.5 L 1098.6 32.5 L 1081 32.5 L 1081 28 L 1103.6 28 L 1103.6 78.5 L 1122.5 78.5 L 1122.5 83 Z M 363.9 94 L 358.5 94 L 394.1 0 L 399.5 0 L 363.9 94 Z M 423.9 94 L 418.5 94 L 454.1 0 L 459.5 0 L 423.9 94 Z M 213.5 64 L 213.5 46.9 A 23.559 23.559 0 0 0 213.096 42.399 Q 212.27 38.155 209.75 35.4 A 12.282 12.282 0 0 0 202.927 31.643 A 18.249 18.249 0 0 0 199.3 31.3 A 17.593 17.593 0 0 0 194.859 31.83 A 12.295 12.295 0 0 0 188.8 35.4 Q 185 39.5 185 46.9 L 185 64 A 23.229 23.229 0 0 0 185.429 68.605 Q 185.992 71.387 187.294 73.537 A 12.762 12.762 0 0 0 188.8 75.55 A 12.483 12.483 0 0 0 195.922 79.403 A 18.325 18.325 0 0 0 199.3 79.7 A 17.355 17.355 0 0 0 203.691 79.176 A 12.085 12.085 0 0 0 209.75 75.55 A 13.718 13.718 0 0 0 212.73 70.039 Q 213.332 67.941 213.463 65.435 A 27.368 27.368 0 0 0 213.5 64 Z M 633.5 64 L 633.5 46.9 A 23.559 23.559 0 0 0 633.096 42.399 Q 632.27 38.155 629.75 35.4 A 12.282 12.282 0 0 0 622.927 31.643 A 18.249 18.249 0 0 0 619.3 31.3 A 17.593 17.593 0 0 0 614.859 31.83 A 12.295 12.295 0 0 0 608.8 35.4 Q 605 39.5 605 46.9 L 605 64 A 23.229 23.229 0 0 0 605.429 68.605 Q 605.992 71.387 607.294 73.537 A 12.762 12.762 0 0 0 608.8 75.55 A 12.483 12.483 0 0 0 615.922 79.403 A 18.325 18.325 0 0 0 619.3 79.7 A 17.355 17.355 0 0 0 623.691 79.176 A 12.085 12.085 0 0 0 629.75 75.55 A 13.718 13.718 0 0 0 632.73 70.039 Q 633.332 67.941 633.463 65.435 A 27.368 27.368 0 0 0 633.5 64 Z M 1173 59.1 L 1173 47 A 23.529 23.529 0 0 0 1172.577 42.395 Q 1172.028 39.646 1170.767 37.514 A 12.758 12.758 0 0 0 1169.25 35.45 Q 1165.5 31.3 1158.7 31.3 A 17.355 17.355 0 0 0 1154.309 31.824 A 12.085 12.085 0 0 0 1148.25 35.45 A 13.718 13.718 0 0 0 1145.27 40.961 Q 1144.668 43.059 1144.537 45.565 A 27.368 27.368 0 0 0 1144.5 47 L 1144.5 59.1 Q 1144.5 64.94 1146.9 68.764 A 12.834 12.834 0 0 0 1148.25 70.55 A 12.264 12.264 0 0 0 1155.165 74.372 A 18.119 18.119 0 0 0 1158.7 74.7 A 17.903 17.903 0 0 0 1163.015 74.21 A 12.12 12.12 0 0 0 1169.25 70.55 A 13.796 13.796 0 0 0 1172.282 64.885 Q 1173 62.294 1173 59.1 Z M 1533 59.1 L 1533 47 A 23.529 23.529 0 0 0 1532.577 42.395 Q 1532.028 39.646 1530.767 37.514 A 12.758 12.758 0 0 0 1529.25 35.45 Q 1525.5 31.3 1518.7 31.3 A 17.355 17.355 0 0 0 1514.309 31.824 A 12.085 12.085 0 0 0 1508.25 35.45 A 13.718 13.718 0 0 0 1505.27 40.961 Q 1504.668 43.059 1504.537 45.565 A 27.368 27.368 0 0 0 1504.5 47 L 1504.5 59.1 Q 1504.5 64.94 1506.9 68.764 A 12.834 12.834 0 0 0 1508.25 70.55 A 12.264 12.264 0 0 0 1515.165 74.372 A 18.119 18.119 0 0 0 1518.7 74.7 A 17.903 17.903 0 0 0 1523.015 74.21 A 12.12 12.12 0 0 0 1529.25 70.55 A 13.796 13.796 0 0 0 1532.282 64.885 Q 1533 62.294 1533 59.1 Z M 1053.2 66.3 L 1053.2 56.4 L 1034.2 56.4 A 16.08 16.08 0 0 0 1030.445 56.815 A 11.204 11.204 0 0 0 1025.5 59.35 A 9.738 9.738 0 0 0 1022.252 66.005 A 13.535 13.535 0 0 0 1022.2 67.2 A 11.825 11.825 0 0 0 1023.112 71.906 A 11.268 11.268 0 0 0 1026.35 76.15 Q 1030.5 79.6 1037.3 79.6 A 22.235 22.235 0 0 0 1042.245 79.08 A 15.285 15.285 0 0 0 1048.8 75.9 A 11.836 11.836 0 0 0 1053.168 67.298 A 15.102 15.102 0 0 0 1053.2 66.3 Z M 1413.2 66.3 L 1413.2 56.4 L 1394.2 56.4 A 16.08 16.08 0 0 0 1390.445 56.815 A 11.204 11.204 0 0 0 1385.5 59.35 A 9.738 9.738 0 0 0 1382.252 66.005 A 13.535 13.535 0 0 0 1382.2 67.2 A 11.825 11.825 0 0 0 1383.112 71.906 A 11.268 11.268 0 0 0 1386.35 76.15 Q 1390.5 79.6 1397.3 79.6 A 22.235 22.235 0 0 0 1402.245 79.08 A 15.285 15.285 0 0 0 1408.8 75.9 A 11.836 11.836 0 0 0 1413.168 67.298 A 15.102 15.102 0 0 0 1413.2 66.3 Z M 814.6 52.2 L 813.5 53.1 L 813.5 47 A 22.366 22.366 0 0 0 813.037 42.308 Q 812.182 38.323 809.75 35.6 A 12.188 12.188 0 0 0 803.105 31.81 A 18.479 18.479 0 0 0 799.1 31.4 A 18.901 18.901 0 0 0 794.712 31.879 A 12.341 12.341 0 0 0 788.3 35.55 Q 784.5 39.7 784.5 47 L 784.5 52.2 L 814.6 52.2 Z M 1234.6 52.2 L 1233.5 53.1 L 1233.5 47 A 22.366 22.366 0 0 0 1233.037 42.308 Q 1232.182 38.323 1229.75 35.6 A 12.188 12.188 0 0 0 1223.105 31.81 A 18.479 18.479 0 0 0 1219.1 31.4 A 18.901 18.901 0 0 0 1214.712 31.879 A 12.341 12.341 0 0 0 1208.3 35.55 Q 1204.5 39.7 1204.5 47 L 1204.5 52.2 L 1234.6 52.2 Z M 916.744 83.735 A 9.088 9.088 0 0 0 919 84 A 9.454 9.454 0 0 0 920.844 83.829 A 6.435 6.435 0 0 0 924.35 81.95 A 6.821 6.821 0 0 0 926.026 78.86 A 9.618 9.618 0 0 0 926.3 76.5 A 9.616 9.616 0 0 0 926.07 74.334 A 6.448 6.448 0 0 0 924.35 71.15 A 6.43 6.43 0 0 0 921.234 69.446 A 9.553 9.553 0 0 0 919 69.2 A 9.616 9.616 0 0 0 916.834 69.43 A 6.448 6.448 0 0 0 913.65 71.15 A 6.43 6.43 0 0 0 911.946 74.266 A 9.553 9.553 0 0 0 911.7 76.5 A 9.977 9.977 0 0 0 911.881 78.447 A 6.921 6.921 0 0 0 913.65 81.95 A 6.343 6.343 0 0 0 916.744 83.735 Z M 1276.744 83.735 A 9.088 9.088 0 0 0 1279 84 A 9.454 9.454 0 0 0 1280.844 83.829 A 6.435 6.435 0 0 0 1284.35 81.95 A 6.821 6.821 0 0 0 1286.026 78.86 A 9.618 9.618 0 0 0 1286.3 76.5 A 9.616 9.616 0 0 0 1286.07 74.334 A 6.448 6.448 0 0 0 1284.35 71.15 A 6.43 6.43 0 0 0 1281.234 69.446 A 9.553 9.553 0 0 0 1279 69.2 A 9.616 9.616 0 0 0 1276.834 69.43 A 6.448 6.448 0 0 0 1273.65 71.15 A 6.43 6.43 0 0 0 1271.946 74.266 A 9.553 9.553 0 0 0 1271.7 76.5 A 9.977 9.977 0 0 0 1271.881 78.447 A 6.921 6.921 0 0 0 1273.65 81.95 A 6.343 6.343 0 0 0 1276.744 83.735 Z M 316.642 41.101 A 8.825 8.825 0 0 0 319 41.4 Q 322.3 41.4 324.3 39.4 A 6.559 6.559 0 0 0 325.97 36.602 A 8.34 8.34 0 0 0 326.3 34.2 A 9.255 9.255 0 0 0 326.23 33.042 A 6.735 6.735 0 0 0 324.3 29 A 6.557 6.557 0 0 0 321.358 27.299 A 8.825 8.825 0 0 0 319 27 Q 315.7 27 313.7 29 A 6.559 6.559 0 0 0 312.03 31.798 A 8.34 8.34 0 0 0 311.7 34.2 A 9.255 9.255 0 0 0 311.77 35.358 A 6.735 6.735 0 0 0 313.7 39.4 A 6.557 6.557 0 0 0 316.642 41.101 Z M 316.642 83.701 A 8.825 8.825 0 0 0 319 84 Q 322.3 84 324.3 82 A 6.559 6.559 0 0 0 325.97 79.202 A 8.34 8.34 0 0 0 326.3 76.8 A 9.255 9.255 0 0 0 326.23 75.642 A 6.735 6.735 0 0 0 324.3 71.6 A 6.557 6.557 0 0 0 321.358 69.899 A 8.825 8.825 0 0 0 319 69.6 Q 315.7 69.6 313.7 71.6 A 6.559 6.559 0 0 0 312.03 74.398 A 8.34 8.34 0 0 0 311.7 76.8 A 9.255 9.255 0 0 0 311.77 77.958 A 6.735 6.735 0 0 0 313.7 82 A 6.557 6.557 0 0 0 316.642 83.701 Z M 1098.639 17.276 A 7.327 7.327 0 0 0 1100.5 17.5 A 7.72 7.72 0 0 0 1101.888 17.381 A 5.442 5.442 0 0 0 1104.7 16 A 4.852 4.852 0 0 0 1106.056 13.8 A 6.317 6.317 0 0 0 1106.3 12 A 7.004 7.004 0 0 0 1106.243 11.089 A 4.983 4.983 0 0 0 1104.7 8 A 5.337 5.337 0 0 0 1102.361 6.724 A 7.327 7.327 0 0 0 1100.5 6.5 A 7.72 7.72 0 0 0 1099.112 6.619 A 5.442 5.442 0 0 0 1096.3 8 A 4.852 4.852 0 0 0 1094.944 10.2 A 6.317 6.317 0 0 0 1094.7 12 A 7.004 7.004 0 0 0 1094.757 12.911 A 4.983 4.983 0 0 0 1096.3 16 A 5.337 5.337 0 0 0 1098.639 17.276 Z M 506.539 17.276 A 7.327 7.327 0 0 0 508.4 17.5 A 7.72 7.72 0 0 0 509.788 17.381 A 5.442 5.442 0 0 0 512.6 16 A 4.852 4.852 0 0 0 513.956 13.8 A 6.317 6.317 0 0 0 514.2 12 A 7.004 7.004 0 0 0 514.143 11.089 A 4.983 4.983 0 0 0 512.6 8 A 5.337 5.337 0 0 0 510.261 6.724 A 7.327 7.327 0 0 0 508.4 6.5 A 7.72 7.72 0 0 0 507.012 6.619 A 5.442 5.442 0 0 0 504.2 8 A 4.852 4.852 0 0 0 502.844 10.2 A 6.317 6.317 0 0 0 502.6 12 A 7.004 7.004 0 0 0 502.657 12.911 A 4.983 4.983 0 0 0 504.2 16 A 5.337 5.337 0 0 0 506.539 17.276 Z"/></g></svg>